<?xml version="1.0" encoding="UTF-8"?>
<svg id="Capa_2" data-name="Capa 2" xmlns="http://www.w3.org/2000/svg" viewBox="0 0 51.6 54.2">
  <defs>
    <style>
      .cls-1 {
        fill: #d8e6b1;
        stroke: #1d1d1b;
        stroke-miterlimit: 10;
      }

      .cls-2 {
        fill: #1d1d1b;
      }
    </style>
  </defs>
  <g id="Capa_1-2" data-name="Capa 1">
    <ellipse class="cls-1" cx="25.8" cy="27.1" rx="25.3" ry="26.6"/>
    <path class="cls-2" d="M15.85,41.49c1.12,.46,2.93,.86,4.95,.86,5.72,0,11.03-3.89,11.03-15.67s-5.86-15.78-10.89-15.78c-2.44,0-3.63,.4-4.74,.8l-1.19-3.72c.98-.51,3-.97,5.86-.97,7.4,0,16.61,4.86,16.61,20.07,0,13.09-6.56,19.15-15.77,19.15-2.93,0-5.23-.4-6.7-1.03l.84-3.72Z"/>
    <rect class="cls-2" x="22.36" y="18.74" width="23.59" height="3.69" transform="translate(68.31 41.18) rotate(-180)"/>
  </g>
</svg>